<?xml version="1.0" encoding="UTF-8" standalone="no"?>
<svg
   xmlns:dc="http://purl.org/dc/elements/1.1/"
   xmlns:cc="http://creativecommons.org/ns#"
   xmlns:rdf="http://www.w3.org/1999/02/22-rdf-syntax-ns#"
   xmlns:svg="http://www.w3.org/2000/svg"
   xmlns="http://www.w3.org/2000/svg"
   xmlns:sodipodi="http://sodipodi.sourceforge.net/DTD/sodipodi-0.dtd"
   xmlns:inkscape="http://www.inkscape.org/namespaces/inkscape"
   id="svg4568"
   viewBox="0 0 10000 10000"
   style="clip-rule:evenodd;fill-rule:evenodd;image-rendering:optimizeQuality;shape-rendering:geometricPrecision;text-rendering:geometricPrecision"
   version="1.1"
   height="100mm"
   width="100mm"
   xml:space="preserve"
   sodipodi:docname="ess-icon.svg"
   inkscape:version="0.92.5 (2060ec1f9f, 2020-04-08)"
   inkscape:export-filename="/home/martin/Code/Python/ESS/icon/apple-touch-icon-120x120.png"
   inkscape:export-xdpi="30.48"
   inkscape:export-ydpi="30.48"><sodipodi:namedview
   pagecolor="#ffffff"
   bordercolor="#666666"
   borderopacity="1"
   objecttolerance="10"
   gridtolerance="10"
   guidetolerance="10"
   inkscape:pageopacity="0"
   inkscape:pageshadow="2"
   inkscape:window-width="1920"
   inkscape:window-height="1139"
   id="namedview1004"
   showgrid="false"
   inkscape:zoom="0.84096521"
   inkscape:cx="479.25364"
   inkscape:cy="486.65186"
   inkscape:window-x="0"
   inkscape:window-y="0"
   inkscape:window-maximized="1"
   inkscape:current-layer="svg4568" />
    <metadata
   id="metadata4572"><rdf:RDF><cc:Work
       rdf:about=""><dc:format>image/svg+xml</dc:format><dc:type
         rdf:resource="http://purl.org/dc/dcmitype/StillImage" /><dc:title></dc:title></cc:Work></rdf:RDF></metadata>
    <defs
   id="defs4558">
  <style
   id="style4556"
   type="text/css">
   <![CDATA[
    .fil0 {fill:black}
   ]]>
  </style>
 </defs>

    <rect
   style="opacity:1;fill:#81c784;fill-opacity:1;stroke-width:10.03796005;stroke-miterlimit:4;stroke-dasharray:none"
   id="rect1568"
   width="10054.167"
   height="10054.167"
   x="-7.2005452e-05"
   y="-54.167068" />
    <path
   inkscape:connector-curvature="0"
   d="m 3101.206,4973.1124 259.0297,-2852.769 c 18.1775,-200.1942 141.7847,-350.3399 289.0226,-350.3399 h 1532.3653 c 136.3314,0 246.3054,151.3969 246.3054,339.0791 0,40.0388 -5.4533,81.3289 -15.4509,118.8653 L 4991.6684,3771.9465 H 6257.733 c 183.5929,0 333.5573,205.1993 333.5573,459.1957 0,92.5899 -19.9952,182.6774 -58.168,259.0014 L 4786.2622,8006.0562 c -53.6236,107.6046 -141.7846,171.4162 -235.3986,171.4162 h -26.3577 c -142.6933,0 -259.0295,-160.1551 -259.0295,-356.5958 0,-28.7778 2.7264,-57.5558 8.1797,-86.3339 L 4700.828,5373.501 H 3392.0464 c -160.8711,0 -290.8404,-178.9237 -290.8404,-400.3886 z"
   id="path975"
   style="fill:#ffffff;stroke-width:10.66395283" /></svg>